<?xml version="1.0" standalone="no"?>
<!DOCTYPE svg PUBLIC "-//W3C//DTD SVG 20010904//EN"
 "http://www.w3.org/TR/2001/REC-SVG-20010904/DTD/svg10.dtd">
<svg version="1.0" xmlns="http://www.w3.org/2000/svg"
 width="227.000000pt" height="222.000000pt" viewBox="0 0 227.000000 222.000000"
 preserveAspectRatio="xMidYMid meet">

<g transform="translate(0.000000,222.000000) scale(0.100000,-0.100000)"
fill="#000000" stroke="none">
<path d="M1028 2207 c-9 -9 -23 -47 -33 -85 l-16 -69 -80 -18 -79 -18 -42 48
c-24 27 -47 54 -53 62 -8 11 -21 8 -70 -15 -33 -16 -86 -45 -117 -65 l-57 -37
26 -76 26 -76 -55 -55 -55 -55 -71 36 c-39 20 -74 36 -76 36 -9 0 -102 -127
-126 -174 l-25 -46 58 -58 58 -58 -23 -72 -23 -71 -55 -6 c-114 -14 -114 -13
-126 -86 -16 -87 -17 -189 -3 -189 7 0 42 -9 79 -20 75 -22 70 -15 85 -130 l6
-45 -70 -43 -70 -43 13 -42 c7 -23 28 -77 45 -119 37 -88 34 -86 141 -63 36 7
65 13 66 12 5 -12 54 -79 74 -103 l26 -30 105 85 105 86 -52 78 c-98 146 -145
328 -125 482 34 252 178 449 406 555 112 53 172 65 305 64 102 0 125 -4 203
-31 157 -55 278 -146 363 -274 168 -253 161 -586 -18 -818 l-35 -45 61 -51
c34 -27 82 -67 108 -88 l48 -38 32 47 c64 91 53 86 137 67 l74 -17 16 24 c26
38 72 149 78 185 5 31 2 36 -58 80 -35 26 -65 48 -65 48 -1 1 3 33 10 71 l11
70 79 25 78 26 -7 90 c-3 49 -10 106 -14 125 l-7 35 -79 10 -79 10 -24 68 -25
69 58 58 58 58 -39 64 c-21 34 -52 82 -69 105 l-31 41 -74 -29 -75 -29 -56 56
-56 56 23 76 c13 42 23 77 21 78 -15 12 -124 77 -163 97 l-52 26 -64 -59 -64
-58 -69 19 c-37 10 -70 20 -72 23 -3 2 -13 37 -23 76 -10 39 -21 75 -25 78 -3
4 -55 8 -114 10 -87 3 -110 1 -123 -11z m208 -39 c4 -7 15 -43 23 -81 l16 -69
98 -25 99 -26 58 58 58 58 69 -37 c101 -55 98 -51 73 -137 l-22 -75 73 -70 72
-71 71 27 c39 15 75 25 79 23 5 -3 29 -37 54 -75 51 -78 53 -66 -28 -151 l-37
-39 31 -88 c30 -89 30 -89 69 -94 21 -3 56 -9 77 -12 22 -3 42 -11 44 -18 3
-8 9 -49 12 -93 l7 -79 -76 -24 c-82 -25 -79 -22 -91 -110 -3 -25 -8 -59 -11
-75 -5 -28 0 -34 61 -79 55 -40 65 -52 59 -70 -8 -27 -56 -139 -63 -148 -3 -4
-35 0 -71 7 -90 20 -93 19 -113 -18 -10 -17 -27 -42 -37 -55 l-20 -24 -75 62
-75 61 29 42 c222 325 150 770 -163 1012 -131 101 -271 148 -446 149 -139 1
-207 -15 -340 -81 -80 -39 -109 -60 -185 -137 -69 -69 -101 -111 -133 -173
-125 -241 -113 -520 32 -747 18 -28 35 -56 39 -63 5 -7 -21 -35 -68 -73 l-75
-61 -32 47 c-18 25 -37 53 -43 60 -9 12 -22 12 -90 0 -44 -8 -83 -11 -87 -8
-8 8 -68 157 -68 169 0 4 32 26 70 48 57 33 69 44 65 60 -3 11 -11 57 -17 103
l-12 82 -75 23 c-55 16 -77 28 -79 41 -7 35 10 146 24 160 7 8 46 17 86 21
l73 7 26 77 c14 42 28 83 32 91 4 10 -13 36 -48 75 -30 33 -55 65 -55 71 0 12
97 154 106 154 2 0 35 -15 72 -34 l68 -34 39 36 c22 21 57 51 77 69 l37 32
-26 76 c-29 88 -35 78 81 141 61 33 70 35 81 21 6 -9 31 -37 55 -63 l43 -47
51 16 c28 9 70 19 94 23 48 8 52 12 76 107 l18 67 89 0 c58 0 90 -4 95 -12z"/>
<path d="M1110 1939 c0 -11 -4 -17 -10 -14 -16 10 -12 -11 5 -25 13 -11 15 -7
15 24 0 20 -2 36 -5 36 -3 0 -5 -9 -5 -21z"/>
<path d="M1017 1943 c-12 -21 -16 -63 -7 -63 5 0 10 5 10 11 0 6 9 8 21 4 20
-7 20 -6 4 24 -16 32 -21 36 -28 24z"/>
<path d="M1070 1918 c0 -36 4 -35 14 5 4 16 2 27 -4 27 -5 0 -10 -14 -10 -32z"/>
<path d="M1167 1926 c-4 -15 -6 -31 -2 -34 10 -10 16 6 13 35 l-3 28 -8 -29z"/>
<path d="M1197 1944 c-4 -4 -7 -19 -6 -33 l1 -26 7 25 7 25 16 -29 16 -30 7
33 c4 18 4 35 1 38 -3 4 -6 -1 -6 -10 0 -21 -9 -22 -24 -1 -6 8 -15 12 -19 8z"/>
<path d="M971 1925 c0 -11 4 -27 9 -35 9 -13 10 -13 9 0 0 8 -4 24 -9 35 l-9
20 0 -20z"/>
<path d="M1265 1931 c-3 -5 4 -16 15 -24 11 -7 17 -17 13 -20 -3 -4 -12 -2
-20 4 -8 7 -13 8 -13 1 0 -12 29 -24 41 -16 14 8 11 25 -8 41 -17 14 -17 14 0
9 9 -3 17 -1 17 4 0 13 -37 13 -45 1z"/>
<path d="M905 1898 c9 -41 9 -41 35 -33 16 5 20 13 18 33 -2 21 -9 28 -31 30
-28 3 -29 2 -22 -30z m40 -3 c0 -10 -6 -20 -12 -22 -8 -3 -13 5 -13 22 0 17 5
25 13 23 6 -3 12 -13 12 -23z"/>
<path d="M1335 1895 c0 -19 3 -35 8 -35 4 0 7 9 7 20 0 11 7 23 16 27 13 5 13
7 2 14 -24 16 -33 9 -33 -26z"/>
<path d="M876 1903 c6 -25 -5 -30 -24 -11 -18 18 -21 6 -6 -27 11 -24 13 -25
8 -5 -7 25 -7 25 15 6 29 -26 35 -16 17 25 -9 19 -13 24 -10 12z"/>
<path d="M1390 1919 c0 -2 -4 -19 -9 -37 -5 -17 -6 -32 -2 -32 10 0 24 61 16
68 -3 3 -5 3 -5 1z"/>
<path d="M1418 1898 c7 -7 7 -19 2 -34 -5 -13 -6 -24 -1 -24 5 0 12 11 15 25
4 16 11 23 18 19 6 -4 8 -3 5 3 -4 6 -16 13 -28 16 -16 4 -19 3 -11 -5z"/>
<path d="M704 1870 c1 -8 -29 -36 -66 -62 -36 -26 -70 -53 -74 -59 -5 -8 -3
-9 6 -4 7 4 16 2 21 -6 8 -12 10 -12 18 0 11 17 34 4 27 -16 -3 -8 -1 -11 4
-8 6 3 10 1 10 -4 0 -6 -8 -11 -17 -12 -12 0 -13 -2 -5 -6 7 -3 19 0 27 7 12
10 11 17 -11 46 -14 18 -23 38 -19 44 10 16 22 12 28 -9 3 -14 11 -18 26 -14
25 6 23 30 -2 25 -8 -1 -19 3 -23 9 -5 9 -2 10 9 6 11 -4 17 -1 17 8 0 21 17
28 37 15 17 -11 17 -11 1 -6 -10 3 -18 0 -18 -5 0 -6 9 -9 20 -6 11 3 20 1 20
-3 0 -5 -8 -11 -17 -13 -12 -3 -8 -5 9 -6 28 -1 34 23 8 39 -7 4 -10 15 -7 23
4 11 1 14 -8 11 -7 -3 -15 0 -18 8 -2 9 -4 8 -3 -2z m-89 -110 c-3 -5 -11 -10
-16 -10 -6 0 -7 5 -4 10 3 6 11 10 16 10 6 0 7 -4 4 -10z"/>
<path d="M813 1860 c6 -16 15 -30 19 -30 4 0 2 14 -3 30 -6 17 -15 30 -19 30
-5 0 -3 -13 3 -30z"/>
<path d="M1464 1856 c-7 -29 1 -46 21 -46 15 0 35 30 35 52 -1 7 -8 1 -16 -14
-15 -28 -34 -37 -34 -17 0 6 5 19 10 30 7 13 7 19 1 19 -6 0 -13 -11 -17 -24z"/>
<path d="M1546 1836 c3 -8 1 -17 -5 -21 -6 -3 -11 -14 -11 -23 1 -11 6 -8 16
11 9 17 20 25 27 20 7 -4 7 0 -2 10 -16 21 -32 22 -25 3z"/>
<path d="M1578 1792 c-16 -27 -16 -29 4 -41 11 -7 22 -10 25 -7 3 3 -2 8 -11
12 -25 9 -19 26 7 19 22 -7 22 -7 2 10 -19 16 -19 16 10 10 29 -6 29 -6 10 9
-27 21 -28 20 -47 -12z"/>
<path d="M1656 1744 c-19 -19 -17 -33 7 -48 24 -15 56 17 41 41 -15 24 -29 26
-48 7z m44 -13 c0 -14 -28 -33 -39 -27 -16 10 -1 36 20 36 10 0 19 -4 19 -9z"/>
<path d="M481 1667 c-36 -41 -41 -53 -28 -55 10 -2 17 -13 17 -25 -1 -20 -2
-20 -11 -4 -5 9 -18 17 -27 17 -15 -1 -15 -2 1 -11 14 -8 16 -14 6 -25 -9 -11
-8 -14 4 -14 9 0 22 9 30 20 8 11 17 17 20 13 4 -3 7 -2 7 3 0 5 -9 15 -20 22
-12 7 -18 17 -14 23 4 6 13 4 25 -7 11 -9 21 -15 24 -12 3 3 -4 13 -15 23 -19
17 -19 19 -4 37 10 10 22 18 27 18 6 0 2 -9 -8 -20 -16 -18 -16 -20 -2 -20 10
0 17 5 17 11 0 6 9 8 23 3 l22 -6 -23 24 c-12 13 -19 28 -15 31 3 4 2 7 -3 6
-5 0 -29 -24 -53 -52z"/>
<path d="M1707 1692 c-20 -22 -23 -39 -4 -23 10 8 17 7 26 -2 11 -10 12 -7 6
13 -7 23 -7 24 11 10 18 -14 18 -14 5 3 -17 22 -24 21 -44 -1z"/>
<path d="M1783 1653 c4 -3 -3 -17 -15 -30 -12 -13 -17 -23 -11 -23 6 0 16 6
23 14 6 8 19 12 28 9 15 -5 14 -3 -2 15 -11 12 -21 22 -24 22 -3 0 -2 -3 1 -7z"/>
<path d="M1801 1591 c-23 -18 -23 -19 -7 -42 9 -13 16 -18 16 -12 0 7 -5 15
-10 18 -6 4 -8 11 -4 16 4 6 11 6 20 -2 12 -10 13 -9 7 7 -6 17 -5 17 10 5 9
-7 17 -9 17 -3 0 24 -25 31 -49 13z"/>
<path d="M377 1513 c-21 -36 -35 -68 -32 -71 2 -3 7 3 11 12 3 9 11 16 16 16
6 0 8 -6 5 -13 -4 -10 2 -13 21 -9 23 5 24 6 7 12 -13 4 -15 9 -7 14 7 4 17 4
22 1 6 -3 10 -2 10 4 0 5 -9 13 -20 16 -21 7 -24 14 -14 39 3 9 10 13 15 10 5
-3 7 -10 4 -15 -4 -5 6 -8 22 -8 15 1 21 3 11 6 -18 5 -31 30 -22 44 3 5 1 9
-4 9 -4 0 -25 -30 -45 -67z m13 -29 c0 -8 -5 -12 -10 -9 -6 4 -8 11 -5 16 9
14 15 11 15 -7z"/>
<path d="M1834 1536 c-15 -12 -17 -19 -8 -32 6 -10 17 -20 25 -22 8 -2 5 3 -6
11 -15 12 -17 18 -8 28 15 15 47 4 37 -13 -5 -10 -4 -10 6 -1 11 10 11 15 0
28 -15 19 -21 19 -46 1z"/>
<path d="M1873 1478 c-13 -6 -23 -15 -23 -20 0 -5 5 -6 10 -3 17 11 32 -5 19
-21 -14 -17 -2 -17 30 0 l23 13 -22 6 c-20 5 -21 8 -10 21 14 18 5 19 -27 4z"/>
<path d="M1898 1413 c-10 -2 -18 -8 -18 -13 0 -5 7 -7 15 -4 18 7 20 -7 3 -25
-11 -11 -9 -13 12 -7 14 3 28 6 33 6 4 0 7 4 7 10 0 5 -7 7 -16 3 -14 -5 -15
-3 -5 15 12 23 8 25 -31 15z"/>
<path d="M303 1389 c-30 -11 -39 -30 -20 -44 21 -15 13 -66 -14 -91 -21 -19
-25 -60 -6 -67 8 -3 6 -11 -8 -28 -15 -18 -16 -20 -2 -10 16 12 17 9 17 -39 0
-33 -6 -60 -14 -69 -11 -12 -12 -21 -5 -31 9 -13 10 -12 5 2 -3 10 -1 20 5 23
5 4 9 3 7 -2 -1 -4 2 -23 6 -40 7 -29 10 -32 27 -22 11 5 24 7 29 4 14 -9 12
9 -2 24 -10 11 -10 13 0 7 6 -4 12 -2 12 4 0 6 -10 11 -22 10 -41 -4 -44 1 -8
16 l35 14 -30 -3 c-26 -2 -30 2 -32 23 -1 14 0 18 3 9 8 -27 41 -11 46 22 4
26 2 29 -24 29 -17 0 -28 5 -28 13 0 9 11 13 33 11 l32 -3 -32 11 c-42 14 -43
33 -3 24 19 -3 29 -2 25 4 -3 6 -15 10 -26 10 -11 0 -19 7 -19 16 0 10 6 14
15 11 8 -4 17 -2 20 3 4 6 -1 10 -9 10 -8 0 -18 5 -22 12 -5 8 3 10 27 6 33
-6 33 -6 7 5 -19 7 -28 18 -27 31 0 12 3 15 6 9 6 -17 31 -16 49 2 9 8 11 15
6 15 -5 0 -9 8 -8 18 0 10 -6 16 -16 16 -18 -2 -23 7 -12 19 4 3 15 2 26 -4
11 -6 22 -8 24 -6 11 11 -53 33 -73 26z m7 -24 c0 -8 -4 -15 -9 -15 -13 0 -22
16 -14 24 11 11 23 6 23 -9z m40 -25 c0 -5 -5 -10 -11 -10 -5 0 -7 5 -4 10 3
6 8 10 11 10 2 0 4 -4 4 -10z m-10 -30 c0 -5 -4 -10 -10 -10 -5 0 -10 5 -10
10 0 6 5 10 10 10 6 0 10 -4 10 -10z m-60 -85 c0 -14 -4 -25 -10 -25 -11 0
-14 33 -3 43 11 11 13 8 13 -18z m39 -127 c0 -13 -3 -17 -6 -10 -2 6 -11 12
-19 12 -8 0 -14 5 -14 10 0 6 9 10 20 10 14 0 20 -6 19 -22z m-9 -108 c0 -5
-4 -10 -9 -10 -6 0 -13 5 -16 10 -3 6 1 10 9 10 9 0 16 -4 16 -10z"/>
<path d="M1911 1337 c-17 -21 10 -51 37 -43 32 11 31 56 -2 56 -13 0 -29 -6
-35 -13z m47 -14 c-2 -10 -10 -18 -18 -18 -8 0 -16 8 -18 18 -2 12 3 17 18 17
15 0 20 -5 18 -17z"/>
<path d="M1938 1273 c-21 -5 -22 -12 -7 -33 9 -13 10 -13 6 0 -2 9 7 20 22 27
26 11 13 15 -21 6z"/>
<path d="M1941 1207 c-18 -23 -2 -49 28 -45 20 2 26 8 26 28 0 29 -34 40 -54
17z m47 -15 c5 -17 -27 -27 -41 -13 -9 9 -8 14 3 21 18 11 32 8 38 -8z"/>
<path d="M1955 1136 c-12 -9 -15 -19 -10 -35 7 -23 26 -24 33 -3 2 8 -3 10
-14 5 -12 -4 -15 -2 -12 8 7 21 43 18 42 -3 -1 -10 2 -15 7 -12 15 9 10 33
-10 43 -13 7 -23 6 -36 -3z"/>
<path d="M1985 1060 c-3 -5 -16 -10 -28 -10 -18 -1 -15 -4 12 -15 39 -17 54
-19 28 -4 -18 10 -18 11 0 25 10 7 13 14 6 14 -6 0 -15 -4 -18 -10z"/>
<path d="M1935 959 c-8 -24 6 -37 38 -35 25 1 36 34 15 47 -23 15 -46 10 -53
-12z m21 -16 c-10 -10 -19 5 -10 18 6 11 8 11 12 0 2 -7 1 -15 -2 -18z m34 7
c0 -5 -4 -10 -10 -10 -5 0 -10 5 -10 10 0 6 5 10 10 10 6 0 10 -4 10 -10z"/>
<path d="M291 901 c1 -9 4 -27 8 -41 5 -16 2 -33 -7 -47 -14 -23 -9 -43 11
-43 8 0 7 3 -2 9 -10 6 -11 13 -3 27 10 17 12 16 22 -11 31 -84 64 -153 87
-180 14 -16 22 -24 19 -17 -5 7 -1 12 8 12 18 0 21 16 6 25 -8 5 -7 12 2 23
12 13 10 14 -9 4 -12 -7 -26 -12 -32 -12 -19 0 -12 16 12 28 21 11 21 11 -5 6
-20 -4 -29 -1 -38 15 -7 14 -7 21 0 21 5 0 10 -6 10 -12 0 -8 7 -5 15 6 8 11
15 25 15 30 0 7 -3 8 -8 1 -4 -5 -17 -11 -29 -12 -16 -2 -24 5 -32 27 -5 17
-6 30 -2 30 5 0 11 -10 14 -22 5 -18 8 -19 21 -8 9 7 16 18 15 24 0 7 -2 6 -6
-1 -2 -7 -9 -13 -14 -13 -14 0 -11 27 4 34 6 3 0 4 -14 1 -37 -7 -44 6 -12 22
l28 13 -28 -5 c-27 -5 -49 17 -32 33 4 4 10 1 12 -6 7 -19 23 -4 23 22 0 19
-7 25 -30 28 -23 3 -30 1 -29 -11z m49 -15 c0 -9 -7 -12 -20 -9 -11 3 -17 9
-14 14 8 14 34 10 34 -5z m85 -256 c3 -5 1 -10 -4 -10 -6 0 -11 5 -11 10 0 6
2 10 4 10 3 0 8 -4 11 -10z"/>
<path d="M1924 895 c-10 -25 4 -45 30 -45 27 0 42 26 25 46 -15 19 -48 18 -55
-1z m46 -10 c10 -12 9 -16 -5 -21 -19 -8 -40 9 -31 25 10 15 21 14 36 -4z"/>
<path d="M1914 831 c4 -6 2 -11 -3 -11 -16 0 -13 -17 3 -23 10 -4 13 -1 9 9
-4 12 0 14 23 8 35 -8 22 10 -15 21 -16 5 -21 4 -17 -4z"/>
<path d="M1915 775 c30 -13 50 -11 41 4 -3 4 -20 8 -38 8 l-33 1 30 -13z"/>
<path d="M1874 740 c-4 -16 -10 -30 -15 -30 -5 0 -6 -7 -3 -15 4 -9 -1 -18
-12 -22 -16 -6 -16 -7 2 -14 47 -19 69 -5 39 25 -22 21 -18 29 10 22 18 -5 27
-1 35 14 9 16 6 22 -20 35 -30 16 -30 16 -36 -15z m26 1 c0 -6 -4 -13 -10 -16
-5 -3 -10 1 -10 9 0 9 5 16 10 16 6 0 10 -4 10 -9z m17 -23 c-3 -8 -6 -5 -6 6
-1 11 2 17 5 13 3 -3 4 -12 1 -19z m-37 -48 c0 -5 -2 -10 -4 -10 -3 0 -8 5
-11 10 -3 6 -1 10 4 10 6 0 11 -4 11 -10z"/>
<path d="M1822 628 c8 -7 21 -22 27 -33 11 -19 12 -19 6 3 -5 17 -2 22 11 22
25 0 14 6 -26 14 -29 5 -32 4 -18 -6z"/>
<path d="M1110 1655 l-21 -35 -27 20 c-15 10 -38 20 -52 22 -23 3 -25 -1 -28
-39 -3 -47 -7 -50 -36 -28 -11 8 -32 15 -48 15 -25 0 -27 -2 -18 -26 19 -48
14 -54 -30 -37 -51 20 -71 7 -46 -28 23 -33 20 -39 -18 -39 -39 0 -69 -26 -42
-36 9 -3 32 -37 52 -74 21 -41 45 -72 60 -79 l26 -11 -41 -49 c-38 -45 -39
-49 -25 -69 8 -12 28 -29 44 -37 30 -16 111 -19 145 -6 13 5 30 0 53 -16 19
-12 39 -23 43 -23 5 0 4 -12 -1 -26 -6 -14 -10 -47 -10 -74 l0 -48 -111 -7
-110 -8 -69 -85 c-68 -85 -69 -85 -54 -115 9 -16 13 -35 10 -43 -4 -12 20 -14
149 -14 124 0 161 -3 190 -17 33 -16 37 -16 70 0 29 14 66 17 191 17 152 0
154 0 144 20 -8 14 -8 26 0 41 10 17 4 33 -37 102 -42 70 -53 82 -78 85 -17 2
-51 10 -78 18 -27 9 -70 14 -100 12 -52 -3 -52 -3 -55 29 -4 43 16 113 32 113
8 0 24 8 37 19 20 16 26 16 48 5 63 -33 159 -7 199 54 13 20 13 22 -6 22 -12
0 -37 20 -60 48 -39 47 -40 48 -19 57 12 6 36 30 54 55 17 25 46 62 64 82 35
43 27 53 -36 46 -38 -4 -44 6 -20 38 23 31 18 37 -31 31 l-46 -5 7 35 c6 34 6
35 -22 31 -15 -3 -36 -9 -46 -13 -17 -7 -18 -4 -12 29 7 35 6 36 -23 36 -16 0
-40 -9 -54 -19 l-24 -19 -24 39 c-14 21 -28 39 -32 39 -3 0 -16 -16 -28 -35z
m59 -43 c50 -98 43 -244 -14 -292 -13 -11 -19 -9 -40 10 -34 32 -48 83 -42
151 5 60 48 169 66 169 6 0 19 -17 30 -38z m-119 3 c22 -23 23 -28 12 -76 -18
-75 -15 -139 8 -182 23 -42 15 -47 -24 -16 -49 38 -59 73 -53 174 6 92 13 125
26 125 4 0 18 -11 31 -25z m220 -95 c0 -121 -12 -166 -51 -194 -25 -17 -39 -5
-20 17 23 29 32 110 20 181 -11 67 -11 70 12 87 13 10 27 19 32 19 4 0 7 -50
7 -110z m-312 38 c6 -7 10 -43 10 -78 -1 -69 9 -98 50 -142 l26 -28 -23 0
c-33 0 -86 60 -99 112 -9 35 -16 129 -13 161 1 10 34 -7 49 -25z m388 -40
c-11 -98 -26 -146 -56 -178 -41 -44 -51 -37 -24 17 19 36 24 62 24 119 0 70 1
74 28 88 15 8 29 15 31 16 2 0 0 -28 -3 -62z m-493 11 c29 -16 34 -24 42 -78
9 -57 18 -76 64 -125 23 -25 29 -37 18 -32 -10 3 -22 6 -27 6 -23 0 -72 70
-96 139 -14 42 -28 82 -31 89 -6 15 2 15 30 1z m547 -85 c-25 -73 -74 -144
-99 -144 -6 0 0 17 14 38 14 22 31 67 38 101 13 61 26 81 58 81 14 0 12 -11
-11 -76z m-573 4 c6 -7 16 -30 23 -51 7 -21 26 -55 44 -75 l31 -35 -30 7 c-16
4 -36 13 -43 19 -11 8 -59 93 -80 140 -6 12 45 8 55 -5z m653 -2 c0 -3 -16
-32 -35 -65 -39 -66 -67 -91 -103 -91 -23 0 -23 0 6 25 16 14 39 45 51 69 11
25 28 49 38 55 19 11 43 14 43 7z m-269 -185 c58 -58 31 -100 -64 -99 -34 0
-70 3 -80 5 -27 7 -37 43 -21 75 19 36 40 47 92 48 35 0 49 -6 73 -29z m-171
13 c0 -16 -45 -66 -70 -79 -16 -8 -55 -15 -86 -15 l-56 0 28 38 c15 20 29 39
30 41 11 14 154 28 154 15z m334 -40 c11 -16 31 -39 44 -50 19 -19 20 -23 6
-28 -24 -9 -88 -7 -121 4 -23 9 -32 21 -45 61 l-15 51 55 -4 c47 -4 58 -9 76
-34z m-387 -86 c-3 -7 -5 -2 -5 12 0 14 2 19 5 13 2 -7 2 -19 0 -25z m20 10
c-3 -8 -6 -5 -6 6 -1 11 2 17 5 13 3 -3 4 -12 1 -19z m-44 -8 c3 -11 1 -20 -4
-20 -5 0 -9 9 -9 20 0 11 2 20 4 20 2 0 6 -9 9 -20z m-73 -5 c0 -8 -4 -15 -10
-15 -5 0 -10 7 -10 15 0 8 5 15 10 15 6 0 10 -7 10 -15z m17 -7 c-3 -8 -6 -5
-6 6 -1 11 2 17 5 13 3 -3 4 -12 1 -19z m33 7 c0 -8 -4 -15 -10 -15 -5 0 -10
7 -10 15 0 8 5 15 10 15 6 0 10 -7 10 -15z m120 -5 c0 -5 -2 -10 -4 -10 -3 0
-8 5 -11 10 -3 6 -1 10 4 10 6 0 11 -4 11 -10z m175 1 c3 -5 1 -12 -5 -16 -5
-3 -10 1 -10 9 0 18 6 21 15 7z m45 -7 c0 -8 -5 -12 -10 -9 -6 4 -8 11 -5 16
9 14 15 11 15 -7z m-193 -9 c0 -8 -4 -15 -9 -15 -4 0 -8 7 -8 15 0 8 4 15 8
15 5 0 9 -7 9 -15z m33 -5 c0 -11 -4 -20 -10 -20 -5 0 -10 9 -10 20 0 11 5 20
10 20 6 0 10 -9 10 -20z m30 1 c0 -11 -4 -23 -10 -26 -6 -4 -10 5 -10 19 0 14
5 26 10 26 6 0 10 -9 10 -19z m30 -1 c0 -11 -4 -20 -10 -20 -5 0 -10 9 -10 20
0 11 5 20 10 20 6 0 10 -9 10 -20z m30 6 c0 -8 -4 -18 -10 -21 -5 -3 -10 3
-10 14 0 12 5 21 10 21 6 0 10 -6 10 -14z m100 -2 c0 -8 -4 -12 -10 -9 -5 3
-10 10 -10 16 0 5 5 9 10 9 6 0 10 -7 10 -16z m30 -4 c0 -5 -4 -10 -10 -10 -5
0 -10 5 -10 10 0 6 5 10 10 10 6 0 10 -4 10 -10z m50 0 c0 -5 -5 -10 -11 -10
-5 0 -7 5 -4 10 3 6 8 10 11 10 2 0 4 -4 4 -10z m-247 -67 c-4 -16 -7 -54 -7
-86 1 -47 -1 -55 -12 -46 -16 13 -19 95 -4 133 13 36 33 34 23 -1z m143 -138
c27 -8 63 -15 81 -15 29 0 36 -7 74 -70 23 -39 39 -73 36 -76 -3 -4 -48 1
-100 10 -113 19 -150 19 -200 2 l-38 -14 3 77 3 76 35 12 c46 16 48 16 106 -2z
m-165 -12 c5 -5 7 -39 3 -80 l-7 -70 -36 13 c-49 18 -94 17 -212 -3 -54 -9
-102 -14 -105 -10 -3 3 19 36 50 74 l55 68 73 12 c81 13 164 11 179 -4z m-121
-144 c-28 -6 -23 -7 21 -4 39 3 61 0 75 -10 14 -11 14 -13 3 -9 -11 3 -16 -1
-16 -13 0 -37 -3 -41 -25 -36 -19 4 -20 3 -8 -6 11 -8 -26 -10 -135 -9 -116 1
-133 3 -75 7 l75 6 -52 8 c-29 5 -58 5 -65 1 -9 -5 -10 -4 -3 4 6 6 24 12 40
15 28 4 28 4 -7 7 -21 1 -42 4 -48 5 -5 1 -16 4 -22 5 -18 3 210 38 247 38 29
-1 29 -1 -5 -9z m255 0 c-21 -5 -8 -7 40 -4 55 3 64 2 40 -5 -16 -6 -57 -9
-90 -8 -33 1 -69 -2 -80 -6 -16 -7 -18 -6 -8 4 13 14 65 28 103 28 23 0 22 -1
-5 -9z m148 -16 c-7 -2 -19 -2 -25 0 -7 3 -2 5 12 5 14 0 19 -2 13 -5z m-53
-15 c0 -4 -26 -9 -57 -11 -32 -2 -17 -3 32 -2 54 2 80 -1 65 -5 -14 -5 -52 -8
-85 -9 -33 -1 -75 -5 -93 -10 -18 -6 -30 -6 -27 -1 3 5 1 11 -5 15 -17 11 -1
23 23 18 13 -3 17 -1 10 4 -6 4 21 8 63 8 41 0 74 -3 74 -7z m128 5 c-10 -2
-26 -2 -35 0 -10 3 -2 5 17 5 19 0 27 -2 18 -5z m-322 -34 c17 -34 9 -48 -26
-49 -31 0 -40 21 -24 51 19 37 30 36 50 -2z m299 1 c-11 -5 -33 -10 -50 -11
-19 -1 -11 -5 25 -9 39 -5 12 -7 -90 -8 -89 0 -137 3 -125 8 11 5 47 9 80 10
33 1 78 5 100 9 22 5 49 9 60 9 l20 1 -20 -9z"/>
<path d="M1188 863 c7 -3 16 -2 19 1 4 3 -2 6 -13 5 -11 0 -14 -3 -6 -6z"/>
<path d="M1308 853 c7 -3 16 -2 19 1 4 3 -2 6 -13 5 -11 0 -14 -3 -6 -6z"/>
<path d="M1378 823 c7 -3 16 -2 19 1 4 3 -2 6 -13 5 -11 0 -14 -3 -6 -6z"/>
<path d="M1348 803 c7 -3 16 -2 19 1 4 3 -2 6 -13 5 -11 0 -14 -3 -6 -6z"/>
<path d="M1050 866 c0 -2 9 -6 20 -9 11 -3 18 -1 14 4 -5 9 -34 13 -34 5z"/>
<path d="M898 853 c7 -3 16 -2 19 1 4 3 -2 6 -13 5 -11 0 -14 -3 -6 -6z"/>
<path d="M1028 843 c7 -3 16 -2 19 1 4 3 -2 6 -13 5 -11 0 -14 -3 -6 -6z"/>
<path d="M1050 816 c0 -2 7 -7 16 -10 8 -3 12 -2 9 4 -6 10 -25 14 -25 6z"/>
<path d="M858 803 c7 -3 16 -2 19 1 4 3 -2 6 -13 5 -11 0 -14 -3 -6 -6z"/>
<path d="M920 739 c32 -9 120 -10 142 -1 9 4 -24 7 -75 8 -52 0 -81 -3 -67 -7z"/>
<path d="M850 730 c14 -4 36 -8 50 -8 23 -1 23 0 5 8 -11 5 -33 8 -50 8 -29 0
-29 0 -5 -8z"/>
<path d="M931 716 c2 -2 36 -6 74 -8 40 -3 61 -2 50 3 -19 7 -132 13 -124 5z"/>
<path d="M895 700 c30 -8 142 -13 134 -6 -2 2 -40 6 -84 8 -45 3 -67 2 -50 -2z"/>
<path d="M1188 708 c5 -5 16 -8 23 -6 8 3 3 7 -10 11 -17 4 -21 3 -13 -5z"/>
<path d="M845 491 c-55 -10 -134 -28 -175 -41 -88 -26 -230 -79 -230 -86 0 -3
7 -19 16 -35 8 -17 14 -32 12 -33 -2 -1 -29 -15 -60 -32 -32 -16 -58 -32 -58
-37 0 -4 26 -56 58 -116 l58 -109 68 29 c37 16 100 39 138 50 l70 21 -7 37
c-3 20 -8 44 -11 53 -6 20 2 22 121 43 195 34 438 29 619 -12 75 -17 72 -11
51 -96 -6 -23 -3 -26 67 -47 40 -12 103 -35 140 -50 l67 -29 60 112 60 112
-22 17 c-12 9 -39 25 -60 34 -29 14 -37 22 -33 36 3 10 9 27 12 37 5 16 -6 24
-73 49 -112 44 -250 80 -361 97 -135 21 -399 18 -527 -4z m420 -21 c61 -6 157
-21 215 -34 117 -27 280 -83 280 -97 0 -5 -15 -38 -32 -74 -23 -47 -37 -65
-48 -61 -207 67 -344 89 -555 89 -181 0 -273 -11 -463 -59 -57 -15 -105 -25
-106 -23 -2 2 -18 33 -36 68 -25 50 -29 66 -18 72 27 17 226 78 305 94 156 32
302 39 458 25z m-741 -287 c20 -42 35 -84 33 -92 -3 -14 -87 141 -87 161 0 27
23 -2 54 -69z m1223 -18 c-39 -79 -67 -114 -51 -62 15 48 75 157 84 152 5 -3
-9 -44 -33 -90z m-1256 -6 c22 -45 38 -84 35 -87 -8 -7 -6 -10 -54 81 -46 86
-46 87 -32 87 5 0 28 -36 51 -81z m1329 71 c0 -18 -81 -160 -91 -160 -5 0 10
38 33 85 39 77 58 102 58 75z m-1363 -90 c23 -44 38 -82 34 -84 -7 -5 -91 142
-91 158 0 22 21 -5 57 -74z m1369 13 c-36 -72 -65 -115 -66 -98 0 17 81 165
91 165 5 0 -6 -30 -25 -67z m-1236 -22 c12 -24 13 -31 2 -31 -5 0 -14 11 -20
25 -14 29 2 34 18 6z m1095 -3 c-10 -31 -25 -47 -25 -26 0 24 11 48 22 48 5 0
6 -10 3 -22z m-1051 -4 c4 -10 1 -14 -6 -12 -15 5 -23 28 -10 28 5 0 13 -7 16
-16z m1010 1 c-6 -16 -24 -21 -24 -7 0 11 11 22 21 22 5 0 6 -7 3 -15z m-967
-1 c-3 -3 -12 -4 -19 -1 -8 3 -5 6 6 6 11 1 17 -2 13 -5z"/>
<path d="M1360 441 c0 -5 7 -12 16 -15 14 -5 15 -4 4 9 -14 17 -20 19 -20 6z"/>
<path d="M997 396 c3 -13 16 -29 30 -35 25 -11 25 -11 20 19 -6 26 -3 30 14
30 15 0 19 -5 14 -19 -3 -10 1 -23 8 -29 11 -9 13 -6 9 18 -3 23 0 30 12 30 9
0 16 -8 16 -20 0 -13 7 -20 19 -20 11 0 22 -6 24 -12 3 -7 6 2 6 20 1 20 6 32
15 32 9 0 12 -7 9 -20 -4 -15 0 -20 15 -20 11 0 22 -6 25 -12 2 -7 6 4 8 25
l5 37 -127 0 -126 0 4 -24z m33 -7 c0 -11 -4 -17 -10 -14 -5 3 -10 13 -10 21
0 8 5 14 10 14 6 0 10 -9 10 -21z m128 10 c-2 -6 -8 -10 -13 -10 -5 0 -11 4
-13 10 -2 6 4 11 13 11 9 0 15 -5 13 -11z m72 -4 c0 -8 -4 -15 -10 -15 -5 0
-10 7 -10 15 0 8 5 15 10 15 6 0 10 -7 10 -15z"/>
<path d="M808 390 c-89 -19 -136 -33 -85 -26 15 2 27 -1 27 -5 0 -5 -8 -9 -17
-9 -13 0 -14 -3 -5 -12 15 -15 16 -32 2 -23 -5 3 -10 2 -10 -3 0 -6 6 -12 14
-15 10 -4 13 1 11 19 -1 13 2 24 6 24 5 0 9 -7 9 -15 0 -8 4 -15 9 -15 6 0 6
12 1 31 -7 22 -6 29 3 26 7 -2 13 -13 15 -25 2 -12 7 -22 11 -22 4 0 6 14 3
30 -4 27 -1 30 22 30 14 0 26 -4 26 -10 0 -5 -7 -10 -15 -10 -8 0 -15 -5 -15
-11 0 -5 5 -7 10 -4 6 4 17 2 24 -4 10 -8 12 -4 8 19 -3 18 0 30 7 30 6 0 11
-9 11 -21 0 -16 4 -19 20 -14 18 6 25 -3 21 -27 0 -5 6 -8 15 -8 13 0 14 3 4
15 -7 8 -10 28 -8 45 5 36 1 37 -124 10z m112 -5 c0 -8 -4 -15 -9 -15 -13 0
-22 16 -14 24 11 11 23 6 23 -9z"/>
<path d="M1300 402 c0 -6 10 -9 21 -7 12 3 26 2 31 -1 11 -7 -16 -34 -34 -34
-10 0 -10 2 1 9 8 5 9 11 3 15 -13 8 -25 -10 -17 -24 4 -6 14 -10 23 -8 10 1
27 -3 39 -10 19 -11 22 -9 28 18 7 30 19 38 29 21 4 -5 0 -11 -6 -14 -9 -3 -4
-13 14 -31 l27 -25 6 29 c7 33 28 42 23 10 -2 -10 1 -19 7 -19 5 -1 10 6 10
14 0 8 5 14 10 12 11 -2 11 -12 1 -51 -4 -17 -1 -26 12 -31 13 -5 14 -3 5 6
-9 8 -8 20 2 49 l14 38 -72 16 c-109 23 -177 30 -177 18z m88 -24 c-3 -7 -13
-15 -23 -16 -15 -4 -16 -2 -4 12 17 19 32 21 27 4z m72 -12 c0 -18 -16 -29
-30 -21 -6 4 -5 11 3 20 16 18 27 19 27 1z"/>
<path d="M1221 337 c2 -1 13 -9 24 -17 19 -14 19 -14 6 3 -7 9 -18 17 -24 17
-6 0 -8 -1 -6 -3z"/>
</g>
</svg>
